<svg xmlns="http://www.w3.org/2000/svg" xmlns:xlink="http://www.w3.org/1999/xlink" width="1080" zoomAndPan="magnify" viewBox="0 0 810 809.999993" height="1080" preserveAspectRatio="xMidYMid meet" version="1.0"><defs><g/><clipPath id="2467b4cdce"><path d="M 557.960938 552.085938 L 630.753906 552.085938 L 630.753906 619.027344 L 557.960938 619.027344 Z M 557.960938 552.085938 " clip-rule="nonzero"/></clipPath><clipPath id="219d17dce7"><path d="M 320.660156 462.3125 L 374.394531 462.3125 L 374.394531 521.796875 L 320.660156 521.796875 Z M 320.660156 462.3125 " clip-rule="nonzero"/></clipPath><clipPath id="10e67defde"><path d="M 380.835938 461.722656 L 434.570312 461.722656 L 434.570312 521.207031 L 380.835938 521.207031 Z M 380.835938 461.722656 " clip-rule="nonzero"/></clipPath><clipPath id="a040654951"><path d="M 320.660156 396.914062 L 374.394531 396.914062 L 374.394531 456.402344 L 320.660156 456.402344 Z M 320.660156 396.914062 " clip-rule="nonzero"/></clipPath><clipPath id="c60cf4baab"><path d="M 380.835938 396.324219 L 434.570312 396.324219 L 434.570312 455.808594 L 380.835938 455.808594 Z M 380.835938 396.324219 " clip-rule="nonzero"/></clipPath><clipPath id="cffbb01e44"><path d="M 557.960938 202.40625 L 630.753906 202.40625 L 630.753906 269.34375 L 557.960938 269.34375 Z M 557.960938 202.40625 " clip-rule="nonzero"/></clipPath><clipPath id="390f6d9916"><path d="M 557.960938 412.214844 L 630.753906 412.214844 L 630.753906 479.152344 L 557.960938 479.152344 Z M 557.960938 412.214844 " clip-rule="nonzero"/></clipPath><clipPath id="2cd12788af"><path d="M 557.960938 482.148438 L 630.753906 482.148438 L 630.753906 549.089844 L 557.960938 549.089844 Z M 557.960938 482.148438 " clip-rule="nonzero"/></clipPath><clipPath id="ca8bfc4529"><path d="M 557.960938 132.46875 L 630.753906 132.46875 L 630.753906 199.410156 L 557.960938 199.410156 Z M 557.960938 132.46875 " clip-rule="nonzero"/></clipPath><clipPath id="480095dc6b"><path d="M 557.960938 272.339844 L 630.753906 272.339844 L 630.753906 339.28125 L 557.960938 339.28125 Z M 557.960938 272.339844 " clip-rule="nonzero"/></clipPath><clipPath id="c2c322e381"><path d="M 557.960938 342.277344 L 630.753906 342.277344 L 630.753906 409.21875 L 557.960938 409.21875 Z M 557.960938 342.277344 " clip-rule="nonzero"/></clipPath><clipPath id="df091b4c22"><path d="M 557.960938 62.53125 L 630.753906 62.53125 L 630.753906 129.472656 L 557.960938 129.472656 Z M 557.960938 62.53125 " clip-rule="nonzero"/></clipPath><clipPath id="487690c326"><path d="M 638.199219 552.085938 L 710.992188 552.085938 L 710.992188 619.027344 L 638.199219 619.027344 Z M 638.199219 552.085938 " clip-rule="nonzero"/></clipPath><clipPath id="887229a718"><path d="M 638.199219 202.40625 L 710.992188 202.40625 L 710.992188 269.34375 L 638.199219 269.34375 Z M 638.199219 202.40625 " clip-rule="nonzero"/></clipPath><clipPath id="474dc9c115"><path d="M 638.199219 412.214844 L 710.992188 412.214844 L 710.992188 479.152344 L 638.199219 479.152344 Z M 638.199219 412.214844 " clip-rule="nonzero"/></clipPath><clipPath id="52a5ed8c32"><path d="M 638.199219 482.148438 L 710.992188 482.148438 L 710.992188 549.089844 L 638.199219 549.089844 Z M 638.199219 482.148438 " clip-rule="nonzero"/></clipPath><clipPath id="597923dab9"><path d="M 638.199219 132.46875 L 710.992188 132.46875 L 710.992188 199.410156 L 638.199219 199.410156 Z M 638.199219 132.46875 " clip-rule="nonzero"/></clipPath><clipPath id="349435fe47"><path d="M 638.199219 272.339844 L 710.992188 272.339844 L 710.992188 339.28125 L 638.199219 339.28125 Z M 638.199219 272.339844 " clip-rule="nonzero"/></clipPath><clipPath id="8af7a29d00"><path d="M 638.199219 342.277344 L 710.992188 342.277344 L 710.992188 409.21875 L 638.199219 409.21875 Z M 638.199219 342.277344 " clip-rule="nonzero"/></clipPath><clipPath id="a830dcac61"><path d="M 638.199219 62.53125 L 710.992188 62.53125 L 710.992188 129.472656 L 638.199219 129.472656 Z M 638.199219 62.53125 " clip-rule="nonzero"/></clipPath><clipPath id="304bf5e83b"><path d="M 320.660156 306.484375 L 374.394531 306.484375 L 374.394531 365.96875 L 320.660156 365.96875 Z M 320.660156 306.484375 " clip-rule="nonzero"/></clipPath><clipPath id="72875c5bfd"><path d="M 380.835938 307.6875 L 434.570312 307.6875 L 434.570312 367.171875 L 380.835938 367.171875 Z M 380.835938 307.6875 " clip-rule="nonzero"/></clipPath><clipPath id="78edc852bd"><path d="M 320.660156 242.847656 L 374.394531 242.847656 L 374.394531 302.332031 L 320.660156 302.332031 Z M 320.660156 242.847656 " clip-rule="nonzero"/></clipPath><clipPath id="567ffdf9bd"><path d="M 380.835938 244.050781 L 434.570312 244.050781 L 434.570312 303.535156 L 380.835938 303.535156 Z M 380.835938 244.050781 " clip-rule="nonzero"/></clipPath><clipPath id="e105f0c18f"><path d="M 320.660156 154.777344 L 374.394531 154.777344 L 374.394531 214.261719 L 320.660156 214.261719 Z M 320.660156 154.777344 " clip-rule="nonzero"/></clipPath><clipPath id="e72ceb1aaf"><path d="M 380.835938 154.78125 L 434.570312 154.78125 L 434.570312 214.265625 L 380.835938 214.265625 Z M 380.835938 154.78125 " clip-rule="nonzero"/></clipPath><clipPath id="0013a6135e"><path d="M 320.660156 87.214844 L 374.394531 87.214844 L 374.394531 146.699219 L 320.660156 146.699219 Z M 320.660156 87.214844 " clip-rule="nonzero"/></clipPath><clipPath id="a9f4e15e77"><path d="M 380.835938 87.21875 L 434.570312 87.21875 L 434.570312 146.703125 L 380.835938 146.703125 Z M 380.835938 87.21875 " clip-rule="nonzero"/></clipPath><clipPath id="e8deba7a20"><path d="M 119.734375 461.722656 L 173.46875 461.722656 L 173.46875 521.207031 L 119.734375 521.207031 Z M 119.734375 461.722656 " clip-rule="nonzero"/></clipPath><clipPath id="f6c5d71b42"><path d="M 178.855469 461.722656 L 232.589844 461.722656 L 232.589844 521.207031 L 178.855469 521.207031 Z M 178.855469 461.722656 " clip-rule="nonzero"/></clipPath><clipPath id="b733172d8b"><path d="M 119.734375 396.914062 L 173.46875 396.914062 L 173.46875 456.402344 L 119.734375 456.402344 Z M 119.734375 396.914062 " clip-rule="nonzero"/></clipPath><clipPath id="698c7d7d92"><path d="M 178.855469 396.914062 L 232.589844 396.914062 L 232.589844 456.402344 L 178.855469 456.402344 Z M 178.855469 396.914062 " clip-rule="nonzero"/></clipPath><clipPath id="2b4ed551ca"><path d="M 119.734375 307.6875 L 173.46875 307.6875 L 173.46875 367.171875 L 119.734375 367.171875 Z M 119.734375 307.6875 " clip-rule="nonzero"/></clipPath><clipPath id="2c44d13576"><path d="M 178.855469 307.6875 L 232.589844 307.6875 L 232.589844 367.171875 L 178.855469 367.171875 Z M 178.855469 307.6875 " clip-rule="nonzero"/></clipPath><clipPath id="041a6bd80a"><path d="M 119.734375 241.644531 L 173.46875 241.644531 L 173.46875 301.128906 L 119.734375 301.128906 Z M 119.734375 241.644531 " clip-rule="nonzero"/></clipPath><clipPath id="19813ed091"><path d="M 178.855469 241.644531 L 232.589844 241.644531 L 232.589844 301.128906 L 178.855469 301.128906 Z M 178.855469 241.644531 " clip-rule="nonzero"/></clipPath><clipPath id="30abb06993"><path d="M 119.734375 151.816406 L 173.46875 151.816406 L 173.46875 211.300781 L 119.734375 211.300781 Z M 119.734375 151.816406 " clip-rule="nonzero"/></clipPath><clipPath id="a7c93440f0"><path d="M 178.855469 151.820312 L 232.589844 151.820312 L 232.589844 211.304688 L 178.855469 211.304688 Z M 178.855469 151.820312 " clip-rule="nonzero"/></clipPath><clipPath id="b87b979ff9"><path d="M 119.734375 87.214844 L 173.46875 87.214844 L 173.46875 146.699219 L 119.734375 146.699219 Z M 119.734375 87.214844 " clip-rule="nonzero"/></clipPath><clipPath id="03d84a6963"><path d="M 178.855469 87.21875 L 232.589844 87.21875 L 232.589844 146.703125 L 178.855469 146.703125 Z M 178.855469 87.21875 " clip-rule="nonzero"/></clipPath><clipPath id="a5c82ef899"><path d="M 170.082031 699.257812 L 235.648438 699.257812 L 235.648438 758.742188 L 170.082031 758.742188 Z M 170.082031 699.257812 " clip-rule="nonzero"/></clipPath><clipPath id="36815d7239"><path d="M 242.699219 699.257812 L 308.265625 699.257812 L 308.265625 758.742188 L 242.699219 758.742188 Z M 242.699219 699.257812 " clip-rule="nonzero"/></clipPath><clipPath id="ea15cea574"><path d="M 169.03125 633.09375 L 234.597656 633.09375 L 234.597656 692.578125 L 169.03125 692.578125 Z M 169.03125 633.09375 " clip-rule="nonzero"/></clipPath><clipPath id="d8ddcc2eb2"><path d="M 242.699219 633.09375 L 308.265625 633.09375 L 308.265625 692.578125 L 242.699219 692.578125 Z M 242.699219 633.09375 " clip-rule="nonzero"/></clipPath><clipPath id="dc31706c3f"><path d="M 315.269531 699.257812 L 380.835938 699.257812 L 380.835938 758.742188 L 315.269531 758.742188 Z M 315.269531 699.257812 " clip-rule="nonzero"/></clipPath><clipPath id="12417e54dd"><path d="M 314.21875 633.09375 L 379.785156 633.09375 L 379.785156 692.578125 L 314.21875 692.578125 Z M 314.21875 633.09375 " clip-rule="nonzero"/></clipPath><clipPath id="1294e84d52"><path d="M 123.328125 580.15625 L 543.652344 580.15625 L 543.652344 619.027344 L 123.328125 619.027344 Z M 123.328125 580.15625 " clip-rule="nonzero"/></clipPath><clipPath id="3d44f0b2d0"><path d="M 123.328125 536.78125 L 543.652344 536.78125 L 543.652344 575.65625 L 123.328125 575.65625 Z M 123.328125 536.78125 " clip-rule="nonzero"/></clipPath></defs><g clip-path="url(#2467b4cdce)"><path fill="#00bf63" d="M 557.960938 552.085938 L 630.65625 552.085938 L 630.65625 619.027344 L 557.960938 619.027344 Z M 557.960938 552.085938 " fill-opacity="1" fill-rule="nonzero"/></g><g clip-path="url(#219d17dce7)"><path fill="#00bf63" d="M 320.660156 462.3125 L 374.394531 462.3125 L 374.394531 521.714844 L 320.660156 521.714844 Z M 320.660156 462.3125 " fill-opacity="1" fill-rule="nonzero"/></g><g clip-path="url(#10e67defde)"><path fill="#00bf63" d="M 380.835938 461.722656 L 434.570312 461.722656 L 434.570312 521.121094 L 380.835938 521.121094 Z M 380.835938 461.722656 " fill-opacity="1" fill-rule="nonzero"/></g><g clip-path="url(#a040654951)"><path fill="#00bf63" d="M 320.660156 396.914062 L 374.394531 396.914062 L 374.394531 456.316406 L 320.660156 456.316406 Z M 320.660156 396.914062 " fill-opacity="1" fill-rule="nonzero"/></g><g clip-path="url(#c60cf4baab)"><path fill="#00bf63" d="M 380.835938 396.324219 L 434.570312 396.324219 L 434.570312 455.726562 L 380.835938 455.726562 Z M 380.835938 396.324219 " fill-opacity="1" fill-rule="nonzero"/></g><g clip-path="url(#cffbb01e44)"><path fill="#00bf63" d="M 557.960938 202.40625 L 630.65625 202.40625 L 630.65625 269.34375 L 557.960938 269.34375 Z M 557.960938 202.40625 " fill-opacity="1" fill-rule="nonzero"/></g><g clip-path="url(#390f6d9916)"><path fill="#00bf63" d="M 557.960938 412.214844 L 630.65625 412.214844 L 630.65625 479.152344 L 557.960938 479.152344 Z M 557.960938 412.214844 " fill-opacity="1" fill-rule="nonzero"/></g><g clip-path="url(#2cd12788af)"><path fill="#00bf63" d="M 557.960938 482.148438 L 630.65625 482.148438 L 630.65625 549.089844 L 557.960938 549.089844 Z M 557.960938 482.148438 " fill-opacity="1" fill-rule="nonzero"/></g><g clip-path="url(#ca8bfc4529)"><path fill="#00bf63" d="M 557.960938 132.46875 L 630.65625 132.46875 L 630.65625 199.410156 L 557.960938 199.410156 Z M 557.960938 132.46875 " fill-opacity="1" fill-rule="nonzero"/></g><g clip-path="url(#480095dc6b)"><path fill="#00bf63" d="M 557.960938 272.339844 L 630.65625 272.339844 L 630.65625 339.28125 L 557.960938 339.28125 Z M 557.960938 272.339844 " fill-opacity="1" fill-rule="nonzero"/></g><g clip-path="url(#c2c322e381)"><path fill="#00bf63" d="M 557.960938 342.277344 L 630.65625 342.277344 L 630.65625 409.21875 L 557.960938 409.21875 Z M 557.960938 342.277344 " fill-opacity="1" fill-rule="nonzero"/></g><g clip-path="url(#df091b4c22)"><path fill="#00bf63" d="M 557.960938 62.53125 L 630.65625 62.53125 L 630.65625 129.472656 L 557.960938 129.472656 Z M 557.960938 62.53125 " fill-opacity="1" fill-rule="nonzero"/></g><g clip-path="url(#487690c326)"><path fill="#00bf63" d="M 638.199219 552.085938 L 710.890625 552.085938 L 710.890625 619.027344 L 638.199219 619.027344 Z M 638.199219 552.085938 " fill-opacity="1" fill-rule="nonzero"/></g><g clip-path="url(#887229a718)"><path fill="#00bf63" d="M 638.199219 202.40625 L 710.890625 202.40625 L 710.890625 269.34375 L 638.199219 269.34375 Z M 638.199219 202.40625 " fill-opacity="1" fill-rule="nonzero"/></g><g clip-path="url(#474dc9c115)"><path fill="#00bf63" d="M 638.199219 412.214844 L 710.890625 412.214844 L 710.890625 479.152344 L 638.199219 479.152344 Z M 638.199219 412.214844 " fill-opacity="1" fill-rule="nonzero"/></g><g clip-path="url(#52a5ed8c32)"><path fill="#00bf63" d="M 638.199219 482.148438 L 710.890625 482.148438 L 710.890625 549.089844 L 638.199219 549.089844 Z M 638.199219 482.148438 " fill-opacity="1" fill-rule="nonzero"/></g><g clip-path="url(#597923dab9)"><path fill="#00bf63" d="M 638.199219 132.46875 L 710.890625 132.46875 L 710.890625 199.410156 L 638.199219 199.410156 Z M 638.199219 132.46875 " fill-opacity="1" fill-rule="nonzero"/></g><g clip-path="url(#349435fe47)"><path fill="#00bf63" d="M 638.199219 272.339844 L 710.890625 272.339844 L 710.890625 339.28125 L 638.199219 339.28125 Z M 638.199219 272.339844 " fill-opacity="1" fill-rule="nonzero"/></g><g clip-path="url(#8af7a29d00)"><path fill="#00bf63" d="M 638.199219 342.277344 L 710.890625 342.277344 L 710.890625 409.21875 L 638.199219 409.21875 Z M 638.199219 342.277344 " fill-opacity="1" fill-rule="nonzero"/></g><g clip-path="url(#a830dcac61)"><path fill="#00bf63" d="M 638.199219 62.53125 L 710.890625 62.53125 L 710.890625 129.472656 L 638.199219 129.472656 Z M 638.199219 62.53125 " fill-opacity="1" fill-rule="nonzero"/></g><g clip-path="url(#304bf5e83b)"><path fill="#00bf63" d="M 320.660156 306.484375 L 374.394531 306.484375 L 374.394531 365.886719 L 320.660156 365.886719 Z M 320.660156 306.484375 " fill-opacity="1" fill-rule="nonzero"/></g><g clip-path="url(#72875c5bfd)"><path fill="#00bf63" d="M 380.835938 307.6875 L 434.570312 307.6875 L 434.570312 367.089844 L 380.835938 367.089844 Z M 380.835938 307.6875 " fill-opacity="1" fill-rule="nonzero"/></g><g clip-path="url(#78edc852bd)"><path fill="#00bf63" d="M 320.660156 242.847656 L 374.394531 242.847656 L 374.394531 302.246094 L 320.660156 302.246094 Z M 320.660156 242.847656 " fill-opacity="1" fill-rule="nonzero"/></g><g clip-path="url(#567ffdf9bd)"><path fill="#00bf63" d="M 380.835938 244.050781 L 434.570312 244.050781 L 434.570312 303.449219 L 380.835938 303.449219 Z M 380.835938 244.050781 " fill-opacity="1" fill-rule="nonzero"/></g><g clip-path="url(#e105f0c18f)"><path fill="#00bf63" d="M 320.660156 154.777344 L 374.394531 154.777344 L 374.394531 214.179688 L 320.660156 214.179688 Z M 320.660156 154.777344 " fill-opacity="1" fill-rule="nonzero"/></g><g clip-path="url(#e72ceb1aaf)"><path fill="#00bf63" d="M 380.835938 154.78125 L 434.570312 154.78125 L 434.570312 214.183594 L 380.835938 214.183594 Z M 380.835938 154.78125 " fill-opacity="1" fill-rule="nonzero"/></g><g clip-path="url(#0013a6135e)"><path fill="#00bf63" d="M 320.660156 87.214844 L 374.394531 87.214844 L 374.394531 146.617188 L 320.660156 146.617188 Z M 320.660156 87.214844 " fill-opacity="1" fill-rule="nonzero"/></g><g clip-path="url(#a9f4e15e77)"><path fill="#00bf63" d="M 380.835938 87.21875 L 434.570312 87.21875 L 434.570312 146.621094 L 380.835938 146.621094 Z M 380.835938 87.21875 " fill-opacity="1" fill-rule="nonzero"/></g><g clip-path="url(#e8deba7a20)"><path fill="#00bf63" d="M 119.734375 461.722656 L 173.46875 461.722656 L 173.46875 521.121094 L 119.734375 521.121094 Z M 119.734375 461.722656 " fill-opacity="1" fill-rule="nonzero"/></g><g clip-path="url(#f6c5d71b42)"><path fill="#00bf63" d="M 178.855469 461.722656 L 232.589844 461.722656 L 232.589844 521.121094 L 178.855469 521.121094 Z M 178.855469 461.722656 " fill-opacity="1" fill-rule="nonzero"/></g><g clip-path="url(#b733172d8b)"><path fill="#00bf63" d="M 119.734375 396.914062 L 173.46875 396.914062 L 173.46875 456.316406 L 119.734375 456.316406 Z M 119.734375 396.914062 " fill-opacity="1" fill-rule="nonzero"/></g><g clip-path="url(#698c7d7d92)"><path fill="#00bf63" d="M 178.855469 396.914062 L 232.589844 396.914062 L 232.589844 456.316406 L 178.855469 456.316406 Z M 178.855469 396.914062 " fill-opacity="1" fill-rule="nonzero"/></g><g clip-path="url(#2b4ed551ca)"><path fill="#00bf63" d="M 119.734375 307.6875 L 173.46875 307.6875 L 173.46875 367.089844 L 119.734375 367.089844 Z M 119.734375 307.6875 " fill-opacity="1" fill-rule="nonzero"/></g><g clip-path="url(#2c44d13576)"><path fill="#00bf63" d="M 178.855469 307.6875 L 232.589844 307.6875 L 232.589844 367.089844 L 178.855469 367.089844 Z M 178.855469 307.6875 " fill-opacity="1" fill-rule="nonzero"/></g><g clip-path="url(#041a6bd80a)"><path fill="#00bf63" d="M 119.734375 241.644531 L 173.46875 241.644531 L 173.46875 301.042969 L 119.734375 301.042969 Z M 119.734375 241.644531 " fill-opacity="1" fill-rule="nonzero"/></g><g clip-path="url(#19813ed091)"><path fill="#00bf63" d="M 178.855469 241.644531 L 232.589844 241.644531 L 232.589844 301.042969 L 178.855469 301.042969 Z M 178.855469 241.644531 " fill-opacity="1" fill-rule="nonzero"/></g><g clip-path="url(#30abb06993)"><path fill="#00bf63" d="M 119.734375 151.816406 L 173.46875 151.816406 L 173.46875 211.214844 L 119.734375 211.214844 Z M 119.734375 151.816406 " fill-opacity="1" fill-rule="nonzero"/></g><g clip-path="url(#a7c93440f0)"><path fill="#00bf63" d="M 178.855469 151.820312 L 232.589844 151.820312 L 232.589844 211.222656 L 178.855469 211.222656 Z M 178.855469 151.820312 " fill-opacity="1" fill-rule="nonzero"/></g><g clip-path="url(#b87b979ff9)"><path fill="#00bf63" d="M 119.734375 87.214844 L 173.46875 87.214844 L 173.46875 146.617188 L 119.734375 146.617188 Z M 119.734375 87.214844 " fill-opacity="1" fill-rule="nonzero"/></g><g clip-path="url(#03d84a6963)"><path fill="#00bf63" d="M 178.855469 87.21875 L 232.589844 87.21875 L 232.589844 146.621094 L 178.855469 146.621094 Z M 178.855469 87.21875 " fill-opacity="1" fill-rule="nonzero"/></g><g clip-path="url(#a5c82ef899)"><path fill="#00bf63" d="M 170.082031 699.257812 L 235.609375 699.257812 L 235.609375 758.742188 L 170.082031 758.742188 Z M 170.082031 699.257812 " fill-opacity="1" fill-rule="nonzero"/></g><g clip-path="url(#36815d7239)"><path fill="#00bf63" d="M 242.699219 699.257812 L 308.226562 699.257812 L 308.226562 758.742188 L 242.699219 758.742188 Z M 242.699219 699.257812 " fill-opacity="1" fill-rule="nonzero"/></g><g clip-path="url(#ea15cea574)"><path fill="#00bf63" d="M 169.03125 633.09375 L 234.558594 633.09375 L 234.558594 692.578125 L 169.03125 692.578125 Z M 169.03125 633.09375 " fill-opacity="1" fill-rule="nonzero"/></g><g clip-path="url(#d8ddcc2eb2)"><path fill="#00bf63" d="M 242.699219 633.09375 L 308.226562 633.09375 L 308.226562 692.578125 L 242.699219 692.578125 Z M 242.699219 633.09375 " fill-opacity="1" fill-rule="nonzero"/></g><g clip-path="url(#dc31706c3f)"><path fill="#00bf63" d="M 315.269531 699.257812 L 380.796875 699.257812 L 380.796875 758.742188 L 315.269531 758.742188 Z M 315.269531 699.257812 " fill-opacity="1" fill-rule="nonzero"/></g><g clip-path="url(#12417e54dd)"><path fill="#00bf63" d="M 314.21875 633.09375 L 379.746094 633.09375 L 379.746094 692.578125 L 314.21875 692.578125 Z M 314.21875 633.09375 " fill-opacity="1" fill-rule="nonzero"/></g><g clip-path="url(#1294e84d52)"><path fill="#ffde59" d="M 123.328125 580.15625 L 543.632812 580.15625 L 543.632812 619.027344 L 123.328125 619.027344 Z M 123.328125 580.15625 " fill-opacity="1" fill-rule="nonzero"/></g><g fill="#000000" fill-opacity="1"><g transform="translate(309.197862, 604.904414)"><g><path d="M 11.796875 -3.609375 C 11.796875 -2.398438 11.320312 -1.460938 10.375 -0.796875 C 9.4375 -0.140625 8.113281 0.1875 6.40625 0.1875 C 3.21875 0.1875 1.367188 -0.921875 0.859375 -3.140625 L 2.578125 -3.484375 C 2.773438 -2.691406 3.195312 -2.113281 3.84375 -1.75 C 4.488281 -1.382812 5.363281 -1.203125 6.46875 -1.203125 C 7.613281 -1.203125 8.492188 -1.394531 9.109375 -1.78125 C 9.734375 -2.175781 10.046875 -2.753906 10.046875 -3.515625 C 10.046875 -3.941406 9.945312 -4.285156 9.75 -4.546875 C 9.5625 -4.816406 9.289062 -5.035156 8.9375 -5.203125 C 8.582031 -5.378906 8.160156 -5.523438 7.671875 -5.640625 C 7.179688 -5.765625 6.640625 -5.894531 6.046875 -6.03125 C 5.015625 -6.257812 4.226562 -6.488281 3.6875 -6.71875 C 3.15625 -6.945312 2.734375 -7.203125 2.421875 -7.484375 C 2.117188 -7.765625 1.882812 -8.09375 1.71875 -8.46875 C 1.550781 -8.84375 1.46875 -9.273438 1.46875 -9.765625 C 1.46875 -10.890625 1.894531 -11.753906 2.75 -12.359375 C 3.613281 -12.960938 4.84375 -13.265625 6.4375 -13.265625 C 7.925781 -13.265625 9.0625 -13.035156 9.84375 -12.578125 C 10.625 -12.128906 11.175781 -11.359375 11.5 -10.265625 L 9.75 -9.953125 C 9.5625 -10.648438 9.195312 -11.15625 8.65625 -11.46875 C 8.113281 -11.78125 7.367188 -11.9375 6.421875 -11.9375 C 5.378906 -11.9375 4.582031 -11.757812 4.03125 -11.40625 C 3.476562 -11.0625 3.203125 -10.546875 3.203125 -9.859375 C 3.203125 -9.460938 3.304688 -9.128906 3.515625 -8.859375 C 3.734375 -8.597656 4.039062 -8.375 4.4375 -8.1875 C 4.84375 -8.007812 5.644531 -7.789062 6.84375 -7.53125 C 7.25 -7.4375 7.648438 -7.335938 8.046875 -7.234375 C 8.441406 -7.140625 8.820312 -7.023438 9.1875 -6.890625 C 9.550781 -6.765625 9.894531 -6.609375 10.21875 -6.421875 C 10.539062 -6.242188 10.816406 -6.023438 11.046875 -5.765625 C 11.285156 -5.503906 11.46875 -5.195312 11.59375 -4.84375 C 11.726562 -4.5 11.796875 -4.085938 11.796875 -3.609375 Z M 11.796875 -3.609375 "/></g></g></g><g fill="#000000" fill-opacity="1"><g transform="translate(321.868107, 604.904414)"><g><path d="M 5.140625 -0.078125 C 4.585938 0.078125 4.023438 0.15625 3.453125 0.15625 C 2.117188 0.15625 1.453125 -0.601562 1.453125 -2.125 L 1.453125 -8.828125 L 0.28125 -8.828125 L 0.28125 -10.03125 L 1.515625 -10.03125 L 2 -12.28125 L 3.125 -12.28125 L 3.125 -10.03125 L 4.96875 -10.03125 L 4.96875 -8.828125 L 3.125 -8.828125 L 3.125 -2.484375 C 3.125 -2.003906 3.203125 -1.664062 3.359375 -1.46875 C 3.515625 -1.269531 3.785156 -1.171875 4.171875 -1.171875 C 4.398438 -1.171875 4.722656 -1.21875 5.140625 -1.3125 Z M 5.140625 -0.078125 "/></g></g></g><g fill="#000000" fill-opacity="1"><g transform="translate(327.145836, 604.904414)"><g><path d="M 3.84375 0.1875 C 2.832031 0.1875 2.070312 -0.078125 1.5625 -0.609375 C 1.0625 -1.140625 0.8125 -1.867188 0.8125 -2.796875 C 0.8125 -3.835938 1.148438 -4.632812 1.828125 -5.1875 C 2.515625 -5.75 3.617188 -6.050781 5.140625 -6.09375 L 7.390625 -6.125 L 7.390625 -6.671875 C 7.390625 -7.484375 7.21875 -8.066406 6.875 -8.421875 C 6.53125 -8.773438 5.984375 -8.953125 5.234375 -8.953125 C 4.492188 -8.953125 3.953125 -8.820312 3.609375 -8.5625 C 3.265625 -8.3125 3.0625 -7.910156 3 -7.359375 L 1.25 -7.515625 C 1.53125 -9.316406 2.875 -10.21875 5.28125 -10.21875 C 6.539062 -10.21875 7.488281 -9.925781 8.125 -9.34375 C 8.757812 -8.769531 9.078125 -7.9375 9.078125 -6.84375 L 9.078125 -2.53125 C 9.078125 -2.03125 9.140625 -1.65625 9.265625 -1.40625 C 9.398438 -1.15625 9.648438 -1.03125 10.015625 -1.03125 C 10.179688 -1.03125 10.363281 -1.050781 10.5625 -1.09375 L 10.5625 -0.0625 C 10.144531 0.0390625 9.71875 0.09375 9.28125 0.09375 C 8.65625 0.09375 8.203125 -0.0664062 7.921875 -0.390625 C 7.640625 -0.710938 7.484375 -1.222656 7.453125 -1.921875 L 7.390625 -1.921875 C 6.960938 -1.148438 6.46875 -0.601562 5.90625 -0.28125 C 5.34375 0.03125 4.65625 0.1875 3.84375 0.1875 Z M 4.21875 -1.0625 C 4.832031 -1.0625 5.375 -1.203125 5.84375 -1.484375 C 6.320312 -1.765625 6.695312 -2.144531 6.96875 -2.625 C 7.25 -3.113281 7.390625 -3.613281 7.390625 -4.125 L 7.390625 -4.953125 L 5.5625 -4.921875 C 4.78125 -4.910156 4.1875 -4.828125 3.78125 -4.671875 C 3.375 -4.523438 3.0625 -4.296875 2.84375 -3.984375 C 2.632812 -3.679688 2.53125 -3.28125 2.53125 -2.78125 C 2.53125 -2.226562 2.675781 -1.800781 2.96875 -1.5 C 3.257812 -1.207031 3.675781 -1.0625 4.21875 -1.0625 Z M 4.21875 -1.0625 "/></g></g></g><g fill="#000000" fill-opacity="1"><g transform="translate(337.710563, 604.904414)"><g><path d="M 1.265625 -12.171875 L 1.265625 -13.765625 L 2.9375 -13.765625 L 2.9375 -12.171875 Z M 1.265625 0 L 1.265625 -10.03125 L 2.9375 -10.03125 L 2.9375 0 Z M 1.265625 0 "/></g></g></g><g fill="#000000" fill-opacity="1"><g transform="translate(341.930892, 604.904414)"><g><path d="M 1.3125 0 L 1.3125 -7.703125 C 1.3125 -8.410156 1.296875 -9.1875 1.265625 -10.03125 L 2.84375 -10.03125 C 2.882812 -8.894531 2.90625 -8.210938 2.90625 -7.984375 L 2.953125 -7.984375 C 3.210938 -8.847656 3.515625 -9.4375 3.859375 -9.75 C 4.210938 -10.0625 4.703125 -10.21875 5.328125 -10.21875 C 5.554688 -10.21875 5.785156 -10.1875 6.015625 -10.125 L 6.015625 -8.59375 C 5.785156 -8.65625 5.488281 -8.6875 5.125 -8.6875 C 4.425781 -8.6875 3.894531 -8.390625 3.53125 -7.796875 C 3.164062 -7.203125 2.984375 -6.347656 2.984375 -5.234375 L 2.984375 0 Z M 1.3125 0 "/></g></g></g><g fill="#000000" fill-opacity="1"><g transform="translate(348.25674, 604.904414)"><g><path d="M 8.8125 -2.78125 C 8.8125 -1.832031 8.453125 -1.097656 7.734375 -0.578125 C 7.023438 -0.0664062 6.023438 0.1875 4.734375 0.1875 C 3.484375 0.1875 2.519531 -0.015625 1.84375 -0.421875 C 1.164062 -0.835938 0.726562 -1.484375 0.53125 -2.359375 L 2 -2.640625 C 2.144531 -2.109375 2.4375 -1.710938 2.875 -1.453125 C 3.320312 -1.203125 3.941406 -1.078125 4.734375 -1.078125 C 5.585938 -1.078125 6.207031 -1.207031 6.59375 -1.46875 C 6.988281 -1.726562 7.1875 -2.117188 7.1875 -2.640625 C 7.1875 -3.035156 7.050781 -3.359375 6.78125 -3.609375 C 6.507812 -3.859375 6.070312 -4.0625 5.46875 -4.21875 L 4.265625 -4.53125 C 3.304688 -4.78125 2.625 -5.023438 2.21875 -5.265625 C 1.8125 -5.503906 1.492188 -5.789062 1.265625 -6.125 C 1.035156 -6.46875 0.921875 -6.890625 0.921875 -7.390625 C 0.921875 -8.304688 1.25 -9.003906 1.90625 -9.484375 C 2.5625 -9.960938 3.515625 -10.203125 4.765625 -10.203125 C 5.867188 -10.203125 6.742188 -10.003906 7.390625 -9.609375 C 8.046875 -9.222656 8.460938 -8.597656 8.640625 -7.734375 L 7.140625 -7.546875 C 7.046875 -7.992188 6.796875 -8.335938 6.390625 -8.578125 C 5.984375 -8.816406 5.441406 -8.9375 4.765625 -8.9375 C 4.003906 -8.9375 3.441406 -8.820312 3.078125 -8.59375 C 2.722656 -8.363281 2.546875 -8.015625 2.546875 -7.546875 C 2.546875 -7.265625 2.617188 -7.03125 2.765625 -6.84375 C 2.921875 -6.65625 3.144531 -6.492188 3.4375 -6.359375 C 3.726562 -6.234375 4.335938 -6.054688 5.265625 -5.828125 C 6.148438 -5.609375 6.785156 -5.40625 7.171875 -5.21875 C 7.566406 -5.03125 7.875 -4.820312 8.09375 -4.59375 C 8.320312 -4.363281 8.5 -4.097656 8.625 -3.796875 C 8.75 -3.492188 8.8125 -3.15625 8.8125 -2.78125 Z M 8.8125 -2.78125 "/></g></g></g><g clip-path="url(#3d44f0b2d0)"><path fill="#ffde59" d="M 123.328125 536.78125 L 543.632812 536.78125 L 543.632812 575.65625 L 123.328125 575.65625 Z M 123.328125 536.78125 " fill-opacity="1" fill-rule="nonzero"/></g><g fill="#000000" fill-opacity="1"><g transform="translate(309.197862, 561.532072)"><g><path d="M 11.796875 -3.609375 C 11.796875 -2.398438 11.320312 -1.460938 10.375 -0.796875 C 9.4375 -0.140625 8.113281 0.1875 6.40625 0.1875 C 3.21875 0.1875 1.367188 -0.921875 0.859375 -3.140625 L 2.578125 -3.484375 C 2.773438 -2.691406 3.195312 -2.113281 3.84375 -1.75 C 4.488281 -1.382812 5.363281 -1.203125 6.46875 -1.203125 C 7.613281 -1.203125 8.492188 -1.394531 9.109375 -1.78125 C 9.734375 -2.175781 10.046875 -2.753906 10.046875 -3.515625 C 10.046875 -3.941406 9.945312 -4.285156 9.75 -4.546875 C 9.5625 -4.816406 9.289062 -5.035156 8.9375 -5.203125 C 8.582031 -5.378906 8.160156 -5.523438 7.671875 -5.640625 C 7.179688 -5.765625 6.640625 -5.894531 6.046875 -6.03125 C 5.015625 -6.257812 4.226562 -6.488281 3.6875 -6.71875 C 3.15625 -6.945312 2.734375 -7.203125 2.421875 -7.484375 C 2.117188 -7.765625 1.882812 -8.09375 1.71875 -8.46875 C 1.550781 -8.84375 1.46875 -9.273438 1.46875 -9.765625 C 1.46875 -10.890625 1.894531 -11.753906 2.75 -12.359375 C 3.613281 -12.960938 4.84375 -13.265625 6.4375 -13.265625 C 7.925781 -13.265625 9.0625 -13.035156 9.84375 -12.578125 C 10.625 -12.128906 11.175781 -11.359375 11.5 -10.265625 L 9.75 -9.953125 C 9.5625 -10.648438 9.195312 -11.15625 8.65625 -11.46875 C 8.113281 -11.78125 7.367188 -11.9375 6.421875 -11.9375 C 5.378906 -11.9375 4.582031 -11.757812 4.03125 -11.40625 C 3.476562 -11.0625 3.203125 -10.546875 3.203125 -9.859375 C 3.203125 -9.460938 3.304688 -9.128906 3.515625 -8.859375 C 3.734375 -8.597656 4.039062 -8.375 4.4375 -8.1875 C 4.84375 -8.007812 5.644531 -7.789062 6.84375 -7.53125 C 7.25 -7.4375 7.648438 -7.335938 8.046875 -7.234375 C 8.441406 -7.140625 8.820312 -7.023438 9.1875 -6.890625 C 9.550781 -6.765625 9.894531 -6.609375 10.21875 -6.421875 C 10.539062 -6.242188 10.816406 -6.023438 11.046875 -5.765625 C 11.285156 -5.503906 11.46875 -5.195312 11.59375 -4.84375 C 11.726562 -4.5 11.796875 -4.085938 11.796875 -3.609375 Z M 11.796875 -3.609375 "/></g></g></g><g fill="#000000" fill-opacity="1"><g transform="translate(321.868107, 561.532072)"><g><path d="M 5.140625 -0.078125 C 4.585938 0.078125 4.023438 0.15625 3.453125 0.15625 C 2.117188 0.15625 1.453125 -0.601562 1.453125 -2.125 L 1.453125 -8.828125 L 0.28125 -8.828125 L 0.28125 -10.03125 L 1.515625 -10.03125 L 2 -12.28125 L 3.125 -12.28125 L 3.125 -10.03125 L 4.96875 -10.03125 L 4.96875 -8.828125 L 3.125 -8.828125 L 3.125 -2.484375 C 3.125 -2.003906 3.203125 -1.664062 3.359375 -1.46875 C 3.515625 -1.269531 3.785156 -1.171875 4.171875 -1.171875 C 4.398438 -1.171875 4.722656 -1.21875 5.140625 -1.3125 Z M 5.140625 -0.078125 "/></g></g></g><g fill="#000000" fill-opacity="1"><g transform="translate(327.145836, 561.532072)"><g><path d="M 3.84375 0.1875 C 2.832031 0.1875 2.070312 -0.078125 1.5625 -0.609375 C 1.0625 -1.140625 0.8125 -1.867188 0.8125 -2.796875 C 0.8125 -3.835938 1.148438 -4.632812 1.828125 -5.1875 C 2.515625 -5.75 3.617188 -6.050781 5.140625 -6.09375 L 7.390625 -6.125 L 7.390625 -6.671875 C 7.390625 -7.484375 7.21875 -8.066406 6.875 -8.421875 C 6.53125 -8.773438 5.984375 -8.953125 5.234375 -8.953125 C 4.492188 -8.953125 3.953125 -8.820312 3.609375 -8.5625 C 3.265625 -8.3125 3.0625 -7.910156 3 -7.359375 L 1.25 -7.515625 C 1.53125 -9.316406 2.875 -10.21875 5.28125 -10.21875 C 6.539062 -10.21875 7.488281 -9.925781 8.125 -9.34375 C 8.757812 -8.769531 9.078125 -7.9375 9.078125 -6.84375 L 9.078125 -2.53125 C 9.078125 -2.03125 9.140625 -1.65625 9.265625 -1.40625 C 9.398438 -1.15625 9.648438 -1.03125 10.015625 -1.03125 C 10.179688 -1.03125 10.363281 -1.050781 10.5625 -1.09375 L 10.5625 -0.0625 C 10.144531 0.0390625 9.71875 0.09375 9.28125 0.09375 C 8.65625 0.09375 8.203125 -0.0664062 7.921875 -0.390625 C 7.640625 -0.710938 7.484375 -1.222656 7.453125 -1.921875 L 7.390625 -1.921875 C 6.960938 -1.148438 6.46875 -0.601562 5.90625 -0.28125 C 5.34375 0.03125 4.65625 0.1875 3.84375 0.1875 Z M 4.21875 -1.0625 C 4.832031 -1.0625 5.375 -1.203125 5.84375 -1.484375 C 6.320312 -1.765625 6.695312 -2.144531 6.96875 -2.625 C 7.25 -3.113281 7.390625 -3.613281 7.390625 -4.125 L 7.390625 -4.953125 L 5.5625 -4.921875 C 4.78125 -4.910156 4.1875 -4.828125 3.78125 -4.671875 C 3.375 -4.523438 3.0625 -4.296875 2.84375 -3.984375 C 2.632812 -3.679688 2.53125 -3.28125 2.53125 -2.78125 C 2.53125 -2.226562 2.675781 -1.800781 2.96875 -1.5 C 3.257812 -1.207031 3.675781 -1.0625 4.21875 -1.0625 Z M 4.21875 -1.0625 "/></g></g></g><g fill="#000000" fill-opacity="1"><g transform="translate(337.710563, 561.532072)"><g><path d="M 1.265625 -12.171875 L 1.265625 -13.765625 L 2.9375 -13.765625 L 2.9375 -12.171875 Z M 1.265625 0 L 1.265625 -10.03125 L 2.9375 -10.03125 L 2.9375 0 Z M 1.265625 0 "/></g></g></g><g fill="#000000" fill-opacity="1"><g transform="translate(341.930892, 561.532072)"><g><path d="M 1.3125 0 L 1.3125 -7.703125 C 1.3125 -8.410156 1.296875 -9.1875 1.265625 -10.03125 L 2.84375 -10.03125 C 2.882812 -8.894531 2.90625 -8.210938 2.90625 -7.984375 L 2.953125 -7.984375 C 3.210938 -8.847656 3.515625 -9.4375 3.859375 -9.75 C 4.210938 -10.0625 4.703125 -10.21875 5.328125 -10.21875 C 5.554688 -10.21875 5.785156 -10.1875 6.015625 -10.125 L 6.015625 -8.59375 C 5.785156 -8.65625 5.488281 -8.6875 5.125 -8.6875 C 4.425781 -8.6875 3.894531 -8.390625 3.53125 -7.796875 C 3.164062 -7.203125 2.984375 -6.347656 2.984375 -5.234375 L 2.984375 0 Z M 1.3125 0 "/></g></g></g><g fill="#000000" fill-opacity="1"><g transform="translate(348.25674, 561.532072)"><g><path d="M 8.8125 -2.78125 C 8.8125 -1.832031 8.453125 -1.097656 7.734375 -0.578125 C 7.023438 -0.0664062 6.023438 0.1875 4.734375 0.1875 C 3.484375 0.1875 2.519531 -0.015625 1.84375 -0.421875 C 1.164062 -0.835938 0.726562 -1.484375 0.53125 -2.359375 L 2 -2.640625 C 2.144531 -2.109375 2.4375 -1.710938 2.875 -1.453125 C 3.320312 -1.203125 3.941406 -1.078125 4.734375 -1.078125 C 5.585938 -1.078125 6.207031 -1.207031 6.59375 -1.46875 C 6.988281 -1.726562 7.1875 -2.117188 7.1875 -2.640625 C 7.1875 -3.035156 7.050781 -3.359375 6.78125 -3.609375 C 6.507812 -3.859375 6.070312 -4.0625 5.46875 -4.21875 L 4.265625 -4.53125 C 3.304688 -4.78125 2.625 -5.023438 2.21875 -5.265625 C 1.8125 -5.503906 1.492188 -5.789062 1.265625 -6.125 C 1.035156 -6.46875 0.921875 -6.890625 0.921875 -7.390625 C 0.921875 -8.304688 1.25 -9.003906 1.90625 -9.484375 C 2.5625 -9.960938 3.515625 -10.203125 4.765625 -10.203125 C 5.867188 -10.203125 6.742188 -10.003906 7.390625 -9.609375 C 8.046875 -9.222656 8.460938 -8.597656 8.640625 -7.734375 L 7.140625 -7.546875 C 7.046875 -7.992188 6.796875 -8.335938 6.390625 -8.578125 C 5.984375 -8.816406 5.441406 -8.9375 4.765625 -8.9375 C 4.003906 -8.9375 3.441406 -8.820312 3.078125 -8.59375 C 2.722656 -8.363281 2.546875 -8.015625 2.546875 -7.546875 C 2.546875 -7.265625 2.617188 -7.03125 2.765625 -6.84375 C 2.921875 -6.65625 3.144531 -6.492188 3.4375 -6.359375 C 3.726562 -6.234375 4.335938 -6.054688 5.265625 -5.828125 C 6.148438 -5.609375 6.785156 -5.40625 7.171875 -5.21875 C 7.566406 -5.03125 7.875 -4.820312 8.09375 -4.59375 C 8.320312 -4.363281 8.5 -4.097656 8.625 -3.796875 C 8.75 -3.492188 8.8125 -3.15625 8.8125 -2.78125 Z M 8.8125 -2.78125 "/></g></g></g></svg>