<svg xmlns="http://www.w3.org/2000/svg" xmlns:xlink="http://www.w3.org/1999/xlink" width="1080" zoomAndPan="magnify" viewBox="0 0 810 809.999993" height="1080" preserveAspectRatio="xMidYMid meet" version="1.0"><defs><g/><clipPath id="2cec7f1ead"><path d="M 414.722656 467.796875 L 475.132812 467.796875 L 475.132812 528.53125 L 414.722656 528.53125 Z M 414.722656 467.796875 " clip-rule="nonzero"/></clipPath><clipPath id="00f3c6640b"><path d="M 483.242188 468.433594 L 543.652344 468.433594 L 543.652344 529.167969 L 483.242188 529.167969 Z M 483.242188 468.433594 " clip-rule="nonzero"/></clipPath><clipPath id="d01b1baba5"><path d="M 414.722656 405.589844 L 475.132812 405.589844 L 475.132812 466.328125 L 414.722656 466.328125 Z M 414.722656 405.589844 " clip-rule="nonzero"/></clipPath><clipPath id="e51eb355e2"><path d="M 483.242188 406.355469 L 543.652344 406.355469 L 543.652344 467.09375 L 483.242188 467.09375 Z M 483.242188 406.355469 " clip-rule="nonzero"/></clipPath><clipPath id="2279130059"><path d="M 598.097656 471.015625 L 669.355469 471.015625 L 669.355469 530.527344 L 598.097656 530.527344 Z M 598.097656 471.015625 " clip-rule="nonzero"/></clipPath><clipPath id="01e1a1297b"><path d="M 598.097656 158.796875 L 669.355469 158.796875 L 669.355469 218.308594 L 598.097656 218.308594 Z M 598.097656 158.796875 " clip-rule="nonzero"/></clipPath><clipPath id="22e567e2ec"><path d="M 598.097656 346.125 L 669.355469 346.125 L 669.355469 405.636719 L 598.097656 405.636719 Z M 598.097656 346.125 " clip-rule="nonzero"/></clipPath><clipPath id="03dd534e4c"><path d="M 598.097656 408.570312 L 669.355469 408.570312 L 669.355469 468.082031 L 598.097656 468.082031 Z M 598.097656 408.570312 " clip-rule="nonzero"/></clipPath><clipPath id="342645e7bf"><path d="M 598.097656 96.351562 L 669.355469 96.351562 L 669.355469 155.863281 L 598.097656 155.863281 Z M 598.097656 96.351562 " clip-rule="nonzero"/></clipPath><clipPath id="d78b0c2127"><path d="M 598.097656 221.238281 L 669.355469 221.238281 L 669.355469 280.75 L 598.097656 280.75 Z M 598.097656 221.238281 " clip-rule="nonzero"/></clipPath><clipPath id="2261704a99"><path d="M 598.097656 283.683594 L 669.355469 283.683594 L 669.355469 343.195312 L 598.097656 343.195312 Z M 598.097656 283.683594 " clip-rule="nonzero"/></clipPath><clipPath id="f36fab9ee8"><path d="M 598.097656 33.90625 L 669.355469 33.90625 L 669.355469 93.417969 L 598.097656 93.417969 Z M 598.097656 33.90625 " clip-rule="nonzero"/></clipPath><clipPath id="e3bcbca8a3"><path d="M 414.722656 343.386719 L 475.132812 343.386719 L 475.132812 404.125 L 414.722656 404.125 Z M 414.722656 343.386719 " clip-rule="nonzero"/></clipPath><clipPath id="c860286466"><path d="M 483.242188 344.28125 L 543.652344 344.28125 L 543.652344 405 L 483.242188 405 Z M 483.242188 344.28125 " clip-rule="nonzero"/></clipPath><clipPath id="22a2782b16"><path d="M 414.722656 281.183594 L 475.132812 281.183594 L 475.132812 341.917969 L 414.722656 341.917969 Z M 414.722656 281.183594 " clip-rule="nonzero"/></clipPath><clipPath id="6417d0a937"><path d="M 483.242188 282.207031 L 543.652344 282.207031 L 543.652344 342.945312 L 483.242188 342.945312 Z M 483.242188 282.207031 " clip-rule="nonzero"/></clipPath><clipPath id="cb9e8c044c"><path d="M 426.867188 622.835938 L 543.652344 622.835938 L 543.652344 697.820312 L 426.867188 697.820312 Z M 426.867188 622.835938 " clip-rule="nonzero"/></clipPath><clipPath id="3b7af9ae93"><path d="M 598.097656 720.789062 L 669.355469 720.789062 L 669.355469 780.300781 L 598.097656 780.300781 Z M 598.097656 720.789062 " clip-rule="nonzero"/></clipPath><clipPath id="a0fe595965"><path d="M 598.097656 595.902344 L 669.355469 595.902344 L 669.355469 655.414062 L 598.097656 655.414062 Z M 598.097656 595.902344 " clip-rule="nonzero"/></clipPath><clipPath id="dcfd9a6f20"><path d="M 598.097656 658.34375 L 669.355469 658.34375 L 669.355469 717.855469 L 598.097656 717.855469 Z M 598.097656 658.34375 " clip-rule="nonzero"/></clipPath><clipPath id="bf0ff762cd"><path d="M 598.097656 533.457031 L 669.355469 533.457031 L 669.355469 592.96875 L 598.097656 592.96875 Z M 598.097656 533.457031 " clip-rule="nonzero"/></clipPath><clipPath id="a662307fa6"><path d="M 426.867188 705.320312 L 543.652344 705.320312 L 543.652344 780.300781 L 426.867188 780.300781 Z M 426.867188 705.320312 " clip-rule="nonzero"/></clipPath><clipPath id="bbb0c0ed7a"><path d="M 414.722656 218.976562 L 475.132812 218.976562 L 475.132812 279.714844 L 414.722656 279.714844 Z M 414.722656 218.976562 " clip-rule="nonzero"/></clipPath><clipPath id="18288856d3"><path d="M 483.242188 220.132812 L 543.652344 220.132812 L 543.652344 280.867188 L 483.242188 280.867188 Z M 483.242188 220.132812 " clip-rule="nonzero"/></clipPath><clipPath id="e1970b55b7"><path d="M 414.722656 156.773438 L 475.132812 156.773438 L 475.132812 217.511719 L 414.722656 217.511719 Z M 414.722656 156.773438 " clip-rule="nonzero"/></clipPath><clipPath id="90d1ee8334"><path d="M 483.242188 158.058594 L 543.652344 158.058594 L 543.652344 218.792969 L 483.242188 218.792969 Z M 483.242188 158.058594 " clip-rule="nonzero"/></clipPath><clipPath id="1a50e39a95"><path d="M 414.722656 94.570312 L 475.132812 94.570312 L 475.132812 155.304688 L 414.722656 155.304688 Z M 414.722656 94.570312 " clip-rule="nonzero"/></clipPath><clipPath id="4d9bb23a49"><path d="M 483.242188 95.984375 L 543.652344 95.984375 L 543.652344 156.71875 L 483.242188 156.71875 Z M 483.242188 95.984375 " clip-rule="nonzero"/></clipPath><clipPath id="4c9ca93437"><path d="M 483.242188 33.90625 L 543.652344 33.90625 L 543.652344 94.644531 L 483.242188 94.644531 Z M 483.242188 33.90625 " clip-rule="nonzero"/></clipPath><clipPath id="0d270d0c4a"><path d="M 148.449219 622.808594 L 217.238281 622.808594 L 217.238281 683.542969 L 148.449219 683.542969 Z M 148.449219 622.808594 " clip-rule="nonzero"/></clipPath><clipPath id="69063912f8"><path d="M 221.550781 622.808594 L 290.953125 622.808594 L 290.953125 683.542969 L 221.550781 683.542969 Z M 221.550781 622.808594 " clip-rule="nonzero"/></clipPath><clipPath id="5873e966b5"><path d="M 123.328125 57.542969 L 362.394531 57.542969 L 362.394531 529.167969 L 123.328125 529.167969 Z M 123.328125 57.542969 " clip-rule="nonzero"/></clipPath><clipPath id="7ffba61984"><path d="M 123.328125 577.90625 L 543.652344 577.90625 L 543.652344 616.777344 L 123.328125 616.777344 Z M 123.328125 577.90625 " clip-rule="nonzero"/></clipPath><clipPath id="30696b657a"><path d="M 123.328125 536.78125 L 543.652344 536.78125 L 543.652344 575.65625 L 123.328125 575.65625 Z M 123.328125 536.78125 " clip-rule="nonzero"/></clipPath></defs><g clip-path="url(#2cec7f1ead)"><path fill="#00bf63" d="M 414.722656 467.796875 L 475.132812 467.796875 L 475.132812 528.445312 L 414.722656 528.445312 Z M 414.722656 467.796875 " fill-opacity="1" fill-rule="nonzero"/></g><g clip-path="url(#00f3c6640b)"><path fill="#00bf63" d="M 483.242188 468.433594 L 543.652344 468.433594 L 543.652344 529.078125 L 483.242188 529.078125 Z M 483.242188 468.433594 " fill-opacity="1" fill-rule="nonzero"/></g><g clip-path="url(#d01b1baba5)"><path fill="#00bf63" d="M 414.722656 405.589844 L 475.132812 405.589844 L 475.132812 466.238281 L 414.722656 466.238281 Z M 414.722656 405.589844 " fill-opacity="1" fill-rule="nonzero"/></g><g clip-path="url(#e51eb355e2)"><path fill="#00bf63" d="M 483.242188 406.355469 L 543.652344 406.355469 L 543.652344 467.003906 L 483.242188 467.003906 Z M 483.242188 406.355469 " fill-opacity="1" fill-rule="nonzero"/></g><g clip-path="url(#2279130059)"><path fill="#00bf63" d="M 598.097656 471.015625 L 669.464844 471.015625 L 669.464844 530.527344 L 598.097656 530.527344 Z M 598.097656 471.015625 " fill-opacity="1" fill-rule="nonzero"/></g><g clip-path="url(#01e1a1297b)"><path fill="#00bf63" d="M 598.097656 158.796875 L 669.464844 158.796875 L 669.464844 218.308594 L 598.097656 218.308594 Z M 598.097656 158.796875 " fill-opacity="1" fill-rule="nonzero"/></g><g clip-path="url(#22e567e2ec)"><path fill="#00bf63" d="M 598.097656 346.125 L 669.464844 346.125 L 669.464844 405.636719 L 598.097656 405.636719 Z M 598.097656 346.125 " fill-opacity="1" fill-rule="nonzero"/></g><g clip-path="url(#03dd534e4c)"><path fill="#00bf63" d="M 598.097656 408.570312 L 669.464844 408.570312 L 669.464844 468.082031 L 598.097656 468.082031 Z M 598.097656 408.570312 " fill-opacity="1" fill-rule="nonzero"/></g><g clip-path="url(#342645e7bf)"><path fill="#00bf63" d="M 598.097656 96.351562 L 669.464844 96.351562 L 669.464844 155.863281 L 598.097656 155.863281 Z M 598.097656 96.351562 " fill-opacity="1" fill-rule="nonzero"/></g><g clip-path="url(#d78b0c2127)"><path fill="#00bf63" d="M 598.097656 221.238281 L 669.464844 221.238281 L 669.464844 280.75 L 598.097656 280.75 Z M 598.097656 221.238281 " fill-opacity="1" fill-rule="nonzero"/></g><g clip-path="url(#2261704a99)"><path fill="#00bf63" d="M 598.097656 283.683594 L 669.464844 283.683594 L 669.464844 343.195312 L 598.097656 343.195312 Z M 598.097656 283.683594 " fill-opacity="1" fill-rule="nonzero"/></g><g clip-path="url(#f36fab9ee8)"><path fill="#00bf63" d="M 598.097656 33.90625 L 669.464844 33.90625 L 669.464844 93.417969 L 598.097656 93.417969 Z M 598.097656 33.90625 " fill-opacity="1" fill-rule="nonzero"/></g><g clip-path="url(#e3bcbca8a3)"><path fill="#00bf63" d="M 414.722656 343.386719 L 475.132812 343.386719 L 475.132812 404.035156 L 414.722656 404.035156 Z M 414.722656 343.386719 " fill-opacity="1" fill-rule="nonzero"/></g><g clip-path="url(#c860286466)"><path fill="#00bf63" d="M 483.242188 344.28125 L 543.652344 344.28125 L 543.652344 404.929688 L 483.242188 404.929688 Z M 483.242188 344.28125 " fill-opacity="1" fill-rule="nonzero"/></g><g clip-path="url(#22a2782b16)"><path fill="#00bf63" d="M 414.722656 281.183594 L 475.132812 281.183594 L 475.132812 341.832031 L 414.722656 341.832031 Z M 414.722656 281.183594 " fill-opacity="1" fill-rule="nonzero"/></g><g clip-path="url(#6417d0a937)"><path fill="#00bf63" d="M 483.242188 282.207031 L 543.652344 282.207031 L 543.652344 342.855469 L 483.242188 342.855469 Z M 483.242188 282.207031 " fill-opacity="1" fill-rule="nonzero"/></g><g clip-path="url(#cb9e8c044c)"><path fill="#00bf63" d="M 426.867188 622.835938 L 543.730469 622.835938 L 543.730469 697.820312 L 426.867188 697.820312 Z M 426.867188 622.835938 " fill-opacity="1" fill-rule="nonzero"/></g><g clip-path="url(#3b7af9ae93)"><path fill="#00bf63" d="M 598.097656 720.789062 L 669.464844 720.789062 L 669.464844 780.300781 L 598.097656 780.300781 Z M 598.097656 720.789062 " fill-opacity="1" fill-rule="nonzero"/></g><g clip-path="url(#a0fe595965)"><path fill="#00bf63" d="M 598.097656 595.902344 L 669.464844 595.902344 L 669.464844 655.414062 L 598.097656 655.414062 Z M 598.097656 595.902344 " fill-opacity="1" fill-rule="nonzero"/></g><g clip-path="url(#dcfd9a6f20)"><path fill="#00bf63" d="M 598.097656 658.34375 L 669.464844 658.34375 L 669.464844 717.855469 L 598.097656 717.855469 Z M 598.097656 658.34375 " fill-opacity="1" fill-rule="nonzero"/></g><g clip-path="url(#bf0ff762cd)"><path fill="#00bf63" d="M 598.097656 533.457031 L 669.464844 533.457031 L 669.464844 592.96875 L 598.097656 592.96875 Z M 598.097656 533.457031 " fill-opacity="1" fill-rule="nonzero"/></g><g clip-path="url(#a662307fa6)"><path fill="#00bf63" d="M 426.867188 705.320312 L 543.730469 705.320312 L 543.730469 780.300781 L 426.867188 780.300781 Z M 426.867188 705.320312 " fill-opacity="1" fill-rule="nonzero"/></g><g clip-path="url(#bbb0c0ed7a)"><path fill="#00bf63" d="M 414.722656 218.976562 L 475.132812 218.976562 L 475.132812 279.625 L 414.722656 279.625 Z M 414.722656 218.976562 " fill-opacity="1" fill-rule="nonzero"/></g><g clip-path="url(#18288856d3)"><path fill="#00bf63" d="M 483.242188 220.132812 L 543.652344 220.132812 L 543.652344 280.78125 L 483.242188 280.78125 Z M 483.242188 220.132812 " fill-opacity="1" fill-rule="nonzero"/></g><g clip-path="url(#e1970b55b7)"><path fill="#00bf63" d="M 414.722656 156.773438 L 475.132812 156.773438 L 475.132812 217.421875 L 414.722656 217.421875 Z M 414.722656 156.773438 " fill-opacity="1" fill-rule="nonzero"/></g><g clip-path="url(#90d1ee8334)"><path fill="#00bf63" d="M 483.242188 158.058594 L 543.652344 158.058594 L 543.652344 218.707031 L 483.242188 218.707031 Z M 483.242188 158.058594 " fill-opacity="1" fill-rule="nonzero"/></g><g clip-path="url(#1a50e39a95)"><path fill="#00bf63" d="M 414.722656 94.570312 L 475.132812 94.570312 L 475.132812 155.21875 L 414.722656 155.21875 Z M 414.722656 94.570312 " fill-opacity="1" fill-rule="nonzero"/></g><g clip-path="url(#4d9bb23a49)"><path fill="#00bf63" d="M 483.242188 95.984375 L 543.652344 95.984375 L 543.652344 156.628906 L 483.242188 156.628906 Z M 483.242188 95.984375 " fill-opacity="1" fill-rule="nonzero"/></g><g clip-path="url(#4c9ca93437)"><path fill="#00bf63" d="M 483.242188 33.90625 L 543.652344 33.90625 L 543.652344 94.554688 L 483.242188 94.554688 Z M 483.242188 33.90625 " fill-opacity="1" fill-rule="nonzero"/></g><g clip-path="url(#0d270d0c4a)"><path fill="#00bf63" d="M 148.449219 622.808594 L 217.253906 622.808594 L 217.253906 683.542969 L 148.449219 683.542969 Z M 148.449219 622.808594 " fill-opacity="1" fill-rule="nonzero"/></g><g clip-path="url(#69063912f8)"><path fill="#00bf63" d="M 221.550781 622.808594 L 291.066406 622.808594 L 291.066406 683.542969 L 221.550781 683.542969 Z M 221.550781 622.808594 " fill-opacity="1" fill-rule="nonzero"/></g><g clip-path="url(#5873e966b5)"><path fill="#ffde59" d="M 123.328125 57.542969 L 362.394531 57.542969 L 362.394531 529.140625 L 123.328125 529.140625 Z M 123.328125 57.542969 " fill-opacity="1" fill-rule="nonzero"/></g><g fill="#000000" fill-opacity="1"><g transform="translate(179.014271, 299.043118)"><g><path d="M 3.328125 -11.625 L 3.328125 -6.765625 L 10.625 -6.765625 L 10.625 -5.296875 L 3.328125 -5.296875 L 3.328125 0 L 1.5625 0 L 1.5625 -13.078125 L 10.84375 -13.078125 L 10.84375 -11.625 Z M 3.328125 -11.625 "/></g></g></g><g fill="#000000" fill-opacity="1"><g transform="translate(190.617847, 299.043118)"><g><path d="M 13.875 -6.59375 C 13.875 -5.226562 13.609375 -4.03125 13.078125 -3 C 12.554688 -1.976562 11.804688 -1.191406 10.828125 -0.640625 C 9.859375 -0.0859375 8.707031 0.1875 7.375 0.1875 C 6.03125 0.1875 4.867188 -0.0820312 3.890625 -0.625 C 2.921875 -1.175781 2.179688 -1.960938 1.671875 -2.984375 C 1.160156 -4.015625 0.90625 -5.21875 0.90625 -6.59375 C 0.90625 -8.6875 1.472656 -10.320312 2.609375 -11.5 C 3.753906 -12.675781 5.347656 -13.265625 7.390625 -13.265625 C 8.722656 -13.265625 9.878906 -13 10.859375 -12.46875 C 11.835938 -11.945312 12.582031 -11.179688 13.09375 -10.171875 C 13.613281 -9.160156 13.875 -7.96875 13.875 -6.59375 Z M 12.0625 -6.59375 C 12.0625 -8.21875 11.65625 -9.492188 10.84375 -10.421875 C 10.03125 -11.347656 8.878906 -11.8125 7.390625 -11.8125 C 5.898438 -11.8125 4.742188 -11.351562 3.921875 -10.4375 C 3.109375 -9.53125 2.703125 -8.25 2.703125 -6.59375 C 2.703125 -4.957031 3.113281 -3.65625 3.9375 -2.6875 C 4.757812 -1.726562 5.90625 -1.25 7.375 -1.25 C 8.882812 -1.25 10.039062 -1.710938 10.84375 -2.640625 C 11.65625 -3.578125 12.0625 -4.894531 12.0625 -6.59375 Z M 12.0625 -6.59375 "/></g></g></g><g fill="#000000" fill-opacity="1"><g transform="translate(205.393623, 299.043118)"><g><path d="M 13.875 -6.59375 C 13.875 -5.226562 13.609375 -4.03125 13.078125 -3 C 12.554688 -1.976562 11.804688 -1.191406 10.828125 -0.640625 C 9.859375 -0.0859375 8.707031 0.1875 7.375 0.1875 C 6.03125 0.1875 4.867188 -0.0820312 3.890625 -0.625 C 2.921875 -1.175781 2.179688 -1.960938 1.671875 -2.984375 C 1.160156 -4.015625 0.90625 -5.21875 0.90625 -6.59375 C 0.90625 -8.6875 1.472656 -10.320312 2.609375 -11.5 C 3.753906 -12.675781 5.347656 -13.265625 7.390625 -13.265625 C 8.722656 -13.265625 9.878906 -13 10.859375 -12.46875 C 11.835938 -11.945312 12.582031 -11.179688 13.09375 -10.171875 C 13.613281 -9.160156 13.875 -7.96875 13.875 -6.59375 Z M 12.0625 -6.59375 C 12.0625 -8.21875 11.65625 -9.492188 10.84375 -10.421875 C 10.03125 -11.347656 8.878906 -11.8125 7.390625 -11.8125 C 5.898438 -11.8125 4.742188 -11.351562 3.921875 -10.4375 C 3.109375 -9.53125 2.703125 -8.25 2.703125 -6.59375 C 2.703125 -4.957031 3.113281 -3.65625 3.9375 -2.6875 C 4.757812 -1.726562 5.90625 -1.25 7.375 -1.25 C 8.882812 -1.25 10.039062 -1.710938 10.84375 -2.640625 C 11.65625 -3.578125 12.0625 -4.894531 12.0625 -6.59375 Z M 12.0625 -6.59375 "/></g></g></g><g fill="#000000" fill-opacity="1"><g transform="translate(220.169398, 299.043118)"><g><path d="M 12.8125 -6.671875 C 12.8125 -5.316406 12.546875 -4.132812 12.015625 -3.125 C 11.492188 -2.113281 10.75 -1.335938 9.78125 -0.796875 C 8.820312 -0.265625 7.710938 0 6.453125 0 L 1.5625 0 L 1.5625 -13.078125 L 5.875 -13.078125 C 8.09375 -13.078125 9.800781 -12.519531 11 -11.40625 C 12.207031 -10.289062 12.8125 -8.710938 12.8125 -6.671875 Z M 11.03125 -6.671875 C 11.03125 -8.285156 10.585938 -9.519531 9.703125 -10.375 C 8.816406 -11.226562 7.53125 -11.65625 5.84375 -11.65625 L 3.328125 -11.65625 L 3.328125 -1.421875 L 6.25 -1.421875 C 7.207031 -1.421875 8.046875 -1.628906 8.765625 -2.046875 C 9.492188 -2.472656 10.050781 -3.082031 10.4375 -3.875 C 10.832031 -4.664062 11.03125 -5.597656 11.03125 -6.671875 Z M 11.03125 -6.671875 "/></g></g></g><g fill="#000000" fill-opacity="1"><g transform="translate(233.887774, 299.043118)"><g/></g></g><g fill="#000000" fill-opacity="1"><g transform="translate(239.165502, 299.043118)"><g><path d="M 7.34375 -11.8125 C 5.894531 -11.8125 4.769531 -11.347656 3.96875 -10.421875 C 3.164062 -9.492188 2.765625 -8.21875 2.765625 -6.59375 C 2.765625 -4.988281 3.179688 -3.695312 4.015625 -2.71875 C 4.859375 -1.75 5.992188 -1.265625 7.421875 -1.265625 C 9.253906 -1.265625 10.628906 -2.171875 11.546875 -3.984375 L 13 -3.265625 C 12.457031 -2.140625 11.695312 -1.28125 10.71875 -0.6875 C 9.75 -0.101562 8.625 0.1875 7.34375 0.1875 C 6.019531 0.1875 4.878906 -0.0820312 3.921875 -0.625 C 2.960938 -1.175781 2.226562 -1.960938 1.71875 -2.984375 C 1.21875 -4.003906 0.96875 -5.207031 0.96875 -6.59375 C 0.96875 -8.675781 1.53125 -10.304688 2.65625 -11.484375 C 3.78125 -12.671875 5.335938 -13.265625 7.328125 -13.265625 C 8.722656 -13.265625 9.882812 -12.992188 10.8125 -12.453125 C 11.75 -11.910156 12.4375 -11.101562 12.875 -10.03125 L 11.203125 -9.46875 C 10.898438 -10.226562 10.410156 -10.804688 9.734375 -11.203125 C 9.066406 -11.609375 8.269531 -11.8125 7.34375 -11.8125 Z M 7.34375 -11.8125 "/></g></g></g><g fill="#000000" fill-opacity="1"><g transform="translate(252.883878, 299.043118)"><g><path d="M 13.875 -6.59375 C 13.875 -5.226562 13.609375 -4.03125 13.078125 -3 C 12.554688 -1.976562 11.804688 -1.191406 10.828125 -0.640625 C 9.859375 -0.0859375 8.707031 0.1875 7.375 0.1875 C 6.03125 0.1875 4.867188 -0.0820312 3.890625 -0.625 C 2.921875 -1.175781 2.179688 -1.960938 1.671875 -2.984375 C 1.160156 -4.015625 0.90625 -5.21875 0.90625 -6.59375 C 0.90625 -8.6875 1.472656 -10.320312 2.609375 -11.5 C 3.753906 -12.675781 5.347656 -13.265625 7.390625 -13.265625 C 8.722656 -13.265625 9.878906 -13 10.859375 -12.46875 C 11.835938 -11.945312 12.582031 -11.179688 13.09375 -10.171875 C 13.613281 -9.160156 13.875 -7.96875 13.875 -6.59375 Z M 12.0625 -6.59375 C 12.0625 -8.21875 11.65625 -9.492188 10.84375 -10.421875 C 10.03125 -11.347656 8.878906 -11.8125 7.390625 -11.8125 C 5.898438 -11.8125 4.742188 -11.351562 3.921875 -10.4375 C 3.109375 -9.53125 2.703125 -8.25 2.703125 -6.59375 C 2.703125 -4.957031 3.113281 -3.65625 3.9375 -2.6875 C 4.757812 -1.726562 5.90625 -1.25 7.375 -1.25 C 8.882812 -1.25 10.039062 -1.710938 10.84375 -2.640625 C 11.65625 -3.578125 12.0625 -4.894531 12.0625 -6.59375 Z M 12.0625 -6.59375 "/></g></g></g><g fill="#000000" fill-opacity="1"><g transform="translate(267.659653, 299.043118)"><g><path d="M 6.78125 0.1875 C 5.707031 0.1875 4.769531 -0.00390625 3.96875 -0.390625 C 3.175781 -0.785156 2.5625 -1.351562 2.125 -2.09375 C 1.6875 -2.832031 1.46875 -3.71875 1.46875 -4.75 L 1.46875 -13.078125 L 3.234375 -13.078125 L 3.234375 -4.90625 C 3.234375 -3.707031 3.535156 -2.796875 4.140625 -2.171875 C 4.753906 -1.554688 5.628906 -1.25 6.765625 -1.25 C 7.941406 -1.25 8.859375 -1.566406 9.515625 -2.203125 C 10.171875 -2.847656 10.5 -3.785156 10.5 -5.015625 L 10.5 -13.078125 L 12.25 -13.078125 L 12.25 -4.921875 C 12.25 -3.859375 12.023438 -2.941406 11.578125 -2.171875 C 11.128906 -1.410156 10.492188 -0.828125 9.671875 -0.421875 C 8.859375 -0.015625 7.894531 0.1875 6.78125 0.1875 Z M 6.78125 0.1875 "/></g></g></g><g fill="#000000" fill-opacity="1"><g transform="translate(281.378029, 299.043118)"><g><path d="M 10.796875 0 L 7.40625 -5.421875 L 3.328125 -5.421875 L 3.328125 0 L 1.5625 0 L 1.5625 -13.078125 L 7.703125 -13.078125 C 9.179688 -13.078125 10.320312 -12.742188 11.125 -12.078125 C 11.925781 -11.421875 12.328125 -10.503906 12.328125 -9.328125 C 12.328125 -8.359375 12.039062 -7.539062 11.46875 -6.875 C 10.90625 -6.21875 10.125 -5.800781 9.125 -5.625 L 12.84375 0 Z M 10.546875 -9.3125 C 10.546875 -10.070312 10.285156 -10.648438 9.765625 -11.046875 C 9.242188 -11.453125 8.5 -11.65625 7.53125 -11.65625 L 3.328125 -11.65625 L 3.328125 -6.828125 L 7.609375 -6.828125 C 8.546875 -6.828125 9.269531 -7.046875 9.78125 -7.484375 C 10.289062 -7.921875 10.546875 -8.53125 10.546875 -9.3125 Z M 10.546875 -9.3125 "/></g></g></g><g fill="#000000" fill-opacity="1"><g transform="translate(295.096404, 299.043118)"><g><path d="M 6.6875 -11.625 L 6.6875 0 L 4.921875 0 L 4.921875 -11.625 L 0.421875 -11.625 L 0.421875 -13.078125 L 11.171875 -13.078125 L 11.171875 -11.625 Z M 6.6875 -11.625 "/></g></g></g><g clip-path="url(#7ffba61984)"><path fill="#ffde59" d="M 123.328125 577.90625 L 543.632812 577.90625 L 543.632812 616.777344 L 123.328125 616.777344 Z M 123.328125 577.90625 " fill-opacity="1" fill-rule="nonzero"/></g><g fill="#000000" fill-opacity="1"><g transform="translate(309.197862, 602.654414)"><g><path d="M 11.796875 -3.609375 C 11.796875 -2.398438 11.320312 -1.460938 10.375 -0.796875 C 9.4375 -0.140625 8.113281 0.1875 6.40625 0.1875 C 3.21875 0.1875 1.367188 -0.921875 0.859375 -3.140625 L 2.578125 -3.484375 C 2.773438 -2.691406 3.195312 -2.113281 3.84375 -1.75 C 4.488281 -1.382812 5.363281 -1.203125 6.46875 -1.203125 C 7.613281 -1.203125 8.492188 -1.394531 9.109375 -1.78125 C 9.734375 -2.175781 10.046875 -2.753906 10.046875 -3.515625 C 10.046875 -3.941406 9.945312 -4.285156 9.75 -4.546875 C 9.5625 -4.816406 9.289062 -5.035156 8.9375 -5.203125 C 8.582031 -5.378906 8.160156 -5.523438 7.671875 -5.640625 C 7.179688 -5.765625 6.640625 -5.894531 6.046875 -6.03125 C 5.015625 -6.257812 4.226562 -6.488281 3.6875 -6.71875 C 3.15625 -6.945312 2.734375 -7.203125 2.421875 -7.484375 C 2.117188 -7.765625 1.882812 -8.09375 1.71875 -8.46875 C 1.550781 -8.84375 1.46875 -9.273438 1.46875 -9.765625 C 1.46875 -10.890625 1.894531 -11.753906 2.75 -12.359375 C 3.613281 -12.960938 4.84375 -13.265625 6.4375 -13.265625 C 7.925781 -13.265625 9.0625 -13.035156 9.84375 -12.578125 C 10.625 -12.128906 11.175781 -11.359375 11.5 -10.265625 L 9.75 -9.953125 C 9.5625 -10.648438 9.195312 -11.15625 8.65625 -11.46875 C 8.113281 -11.78125 7.367188 -11.9375 6.421875 -11.9375 C 5.378906 -11.9375 4.582031 -11.757812 4.03125 -11.40625 C 3.476562 -11.0625 3.203125 -10.546875 3.203125 -9.859375 C 3.203125 -9.460938 3.304688 -9.128906 3.515625 -8.859375 C 3.734375 -8.597656 4.039062 -8.375 4.4375 -8.1875 C 4.84375 -8.007812 5.644531 -7.789062 6.84375 -7.53125 C 7.25 -7.4375 7.648438 -7.335938 8.046875 -7.234375 C 8.441406 -7.140625 8.820312 -7.023438 9.1875 -6.890625 C 9.550781 -6.765625 9.894531 -6.609375 10.21875 -6.421875 C 10.539062 -6.242188 10.816406 -6.023438 11.046875 -5.765625 C 11.285156 -5.503906 11.46875 -5.195312 11.59375 -4.84375 C 11.726562 -4.5 11.796875 -4.085938 11.796875 -3.609375 Z M 11.796875 -3.609375 "/></g></g></g><g fill="#000000" fill-opacity="1"><g transform="translate(321.868107, 602.654414)"><g><path d="M 5.140625 -0.078125 C 4.585938 0.078125 4.023438 0.15625 3.453125 0.15625 C 2.117188 0.15625 1.453125 -0.601562 1.453125 -2.125 L 1.453125 -8.828125 L 0.28125 -8.828125 L 0.28125 -10.03125 L 1.515625 -10.03125 L 2 -12.28125 L 3.125 -12.28125 L 3.125 -10.03125 L 4.96875 -10.03125 L 4.96875 -8.828125 L 3.125 -8.828125 L 3.125 -2.484375 C 3.125 -2.003906 3.203125 -1.664062 3.359375 -1.46875 C 3.515625 -1.269531 3.785156 -1.171875 4.171875 -1.171875 C 4.398438 -1.171875 4.722656 -1.21875 5.140625 -1.3125 Z M 5.140625 -0.078125 "/></g></g></g><g fill="#000000" fill-opacity="1"><g transform="translate(327.145836, 602.654414)"><g><path d="M 3.84375 0.1875 C 2.832031 0.1875 2.070312 -0.078125 1.5625 -0.609375 C 1.0625 -1.140625 0.8125 -1.867188 0.8125 -2.796875 C 0.8125 -3.835938 1.148438 -4.632812 1.828125 -5.1875 C 2.515625 -5.75 3.617188 -6.050781 5.140625 -6.09375 L 7.390625 -6.125 L 7.390625 -6.671875 C 7.390625 -7.484375 7.21875 -8.066406 6.875 -8.421875 C 6.53125 -8.773438 5.984375 -8.953125 5.234375 -8.953125 C 4.492188 -8.953125 3.953125 -8.820312 3.609375 -8.5625 C 3.265625 -8.3125 3.0625 -7.910156 3 -7.359375 L 1.25 -7.515625 C 1.53125 -9.316406 2.875 -10.21875 5.28125 -10.21875 C 6.539062 -10.21875 7.488281 -9.925781 8.125 -9.34375 C 8.757812 -8.769531 9.078125 -7.9375 9.078125 -6.84375 L 9.078125 -2.53125 C 9.078125 -2.03125 9.140625 -1.65625 9.265625 -1.40625 C 9.398438 -1.15625 9.648438 -1.03125 10.015625 -1.03125 C 10.179688 -1.03125 10.363281 -1.050781 10.5625 -1.09375 L 10.5625 -0.0625 C 10.144531 0.0390625 9.71875 0.09375 9.28125 0.09375 C 8.65625 0.09375 8.203125 -0.0664062 7.921875 -0.390625 C 7.640625 -0.710938 7.484375 -1.222656 7.453125 -1.921875 L 7.390625 -1.921875 C 6.960938 -1.148438 6.46875 -0.601562 5.90625 -0.28125 C 5.34375 0.03125 4.65625 0.1875 3.84375 0.1875 Z M 4.21875 -1.0625 C 4.832031 -1.0625 5.375 -1.203125 5.84375 -1.484375 C 6.320312 -1.765625 6.695312 -2.144531 6.96875 -2.625 C 7.25 -3.113281 7.390625 -3.613281 7.390625 -4.125 L 7.390625 -4.953125 L 5.5625 -4.921875 C 4.78125 -4.910156 4.1875 -4.828125 3.78125 -4.671875 C 3.375 -4.523438 3.0625 -4.296875 2.84375 -3.984375 C 2.632812 -3.679688 2.53125 -3.28125 2.53125 -2.78125 C 2.53125 -2.226562 2.675781 -1.800781 2.96875 -1.5 C 3.257812 -1.207031 3.675781 -1.0625 4.21875 -1.0625 Z M 4.21875 -1.0625 "/></g></g></g><g fill="#000000" fill-opacity="1"><g transform="translate(337.710563, 602.654414)"><g><path d="M 1.265625 -12.171875 L 1.265625 -13.765625 L 2.9375 -13.765625 L 2.9375 -12.171875 Z M 1.265625 0 L 1.265625 -10.03125 L 2.9375 -10.03125 L 2.9375 0 Z M 1.265625 0 "/></g></g></g><g fill="#000000" fill-opacity="1"><g transform="translate(341.930892, 602.654414)"><g><path d="M 1.3125 0 L 1.3125 -7.703125 C 1.3125 -8.410156 1.296875 -9.1875 1.265625 -10.03125 L 2.84375 -10.03125 C 2.882812 -8.894531 2.90625 -8.210938 2.90625 -7.984375 L 2.953125 -7.984375 C 3.210938 -8.847656 3.515625 -9.4375 3.859375 -9.75 C 4.210938 -10.0625 4.703125 -10.21875 5.328125 -10.21875 C 5.554688 -10.21875 5.785156 -10.1875 6.015625 -10.125 L 6.015625 -8.59375 C 5.785156 -8.65625 5.488281 -8.6875 5.125 -8.6875 C 4.425781 -8.6875 3.894531 -8.390625 3.53125 -7.796875 C 3.164062 -7.203125 2.984375 -6.347656 2.984375 -5.234375 L 2.984375 0 Z M 1.3125 0 "/></g></g></g><g fill="#000000" fill-opacity="1"><g transform="translate(348.25674, 602.654414)"><g><path d="M 8.8125 -2.78125 C 8.8125 -1.832031 8.453125 -1.097656 7.734375 -0.578125 C 7.023438 -0.0664062 6.023438 0.1875 4.734375 0.1875 C 3.484375 0.1875 2.519531 -0.015625 1.84375 -0.421875 C 1.164062 -0.835938 0.726562 -1.484375 0.53125 -2.359375 L 2 -2.640625 C 2.144531 -2.109375 2.4375 -1.710938 2.875 -1.453125 C 3.320312 -1.203125 3.941406 -1.078125 4.734375 -1.078125 C 5.585938 -1.078125 6.207031 -1.207031 6.59375 -1.46875 C 6.988281 -1.726562 7.1875 -2.117188 7.1875 -2.640625 C 7.1875 -3.035156 7.050781 -3.359375 6.78125 -3.609375 C 6.507812 -3.859375 6.070312 -4.0625 5.46875 -4.21875 L 4.265625 -4.53125 C 3.304688 -4.78125 2.625 -5.023438 2.21875 -5.265625 C 1.8125 -5.503906 1.492188 -5.789062 1.265625 -6.125 C 1.035156 -6.46875 0.921875 -6.890625 0.921875 -7.390625 C 0.921875 -8.304688 1.25 -9.003906 1.90625 -9.484375 C 2.5625 -9.960938 3.515625 -10.203125 4.765625 -10.203125 C 5.867188 -10.203125 6.742188 -10.003906 7.390625 -9.609375 C 8.046875 -9.222656 8.460938 -8.597656 8.640625 -7.734375 L 7.140625 -7.546875 C 7.046875 -7.992188 6.796875 -8.335938 6.390625 -8.578125 C 5.984375 -8.816406 5.441406 -8.9375 4.765625 -8.9375 C 4.003906 -8.9375 3.441406 -8.820312 3.078125 -8.59375 C 2.722656 -8.363281 2.546875 -8.015625 2.546875 -7.546875 C 2.546875 -7.265625 2.617188 -7.03125 2.765625 -6.84375 C 2.921875 -6.65625 3.144531 -6.492188 3.4375 -6.359375 C 3.726562 -6.234375 4.335938 -6.054688 5.265625 -5.828125 C 6.148438 -5.609375 6.785156 -5.40625 7.171875 -5.21875 C 7.566406 -5.03125 7.875 -4.820312 8.09375 -4.59375 C 8.320312 -4.363281 8.5 -4.097656 8.625 -3.796875 C 8.75 -3.492188 8.8125 -3.15625 8.8125 -2.78125 Z M 8.8125 -2.78125 "/></g></g></g><g clip-path="url(#30696b657a)"><path fill="#ffde59" d="M 123.328125 536.78125 L 543.632812 536.78125 L 543.632812 575.65625 L 123.328125 575.65625 Z M 123.328125 536.78125 " fill-opacity="1" fill-rule="nonzero"/></g><g fill="#000000" fill-opacity="1"><g transform="translate(309.197862, 561.532072)"><g><path d="M 11.796875 -3.609375 C 11.796875 -2.398438 11.320312 -1.460938 10.375 -0.796875 C 9.4375 -0.140625 8.113281 0.1875 6.40625 0.1875 C 3.21875 0.1875 1.367188 -0.921875 0.859375 -3.140625 L 2.578125 -3.484375 C 2.773438 -2.691406 3.195312 -2.113281 3.84375 -1.75 C 4.488281 -1.382812 5.363281 -1.203125 6.46875 -1.203125 C 7.613281 -1.203125 8.492188 -1.394531 9.109375 -1.78125 C 9.734375 -2.175781 10.046875 -2.753906 10.046875 -3.515625 C 10.046875 -3.941406 9.945312 -4.285156 9.75 -4.546875 C 9.5625 -4.816406 9.289062 -5.035156 8.9375 -5.203125 C 8.582031 -5.378906 8.160156 -5.523438 7.671875 -5.640625 C 7.179688 -5.765625 6.640625 -5.894531 6.046875 -6.03125 C 5.015625 -6.257812 4.226562 -6.488281 3.6875 -6.71875 C 3.15625 -6.945312 2.734375 -7.203125 2.421875 -7.484375 C 2.117188 -7.765625 1.882812 -8.09375 1.71875 -8.46875 C 1.550781 -8.84375 1.46875 -9.273438 1.46875 -9.765625 C 1.46875 -10.890625 1.894531 -11.753906 2.75 -12.359375 C 3.613281 -12.960938 4.84375 -13.265625 6.4375 -13.265625 C 7.925781 -13.265625 9.0625 -13.035156 9.84375 -12.578125 C 10.625 -12.128906 11.175781 -11.359375 11.5 -10.265625 L 9.75 -9.953125 C 9.5625 -10.648438 9.195312 -11.15625 8.65625 -11.46875 C 8.113281 -11.78125 7.367188 -11.9375 6.421875 -11.9375 C 5.378906 -11.9375 4.582031 -11.757812 4.03125 -11.40625 C 3.476562 -11.0625 3.203125 -10.546875 3.203125 -9.859375 C 3.203125 -9.460938 3.304688 -9.128906 3.515625 -8.859375 C 3.734375 -8.597656 4.039062 -8.375 4.4375 -8.1875 C 4.84375 -8.007812 5.644531 -7.789062 6.84375 -7.53125 C 7.25 -7.4375 7.648438 -7.335938 8.046875 -7.234375 C 8.441406 -7.140625 8.820312 -7.023438 9.1875 -6.890625 C 9.550781 -6.765625 9.894531 -6.609375 10.21875 -6.421875 C 10.539062 -6.242188 10.816406 -6.023438 11.046875 -5.765625 C 11.285156 -5.503906 11.46875 -5.195312 11.59375 -4.84375 C 11.726562 -4.5 11.796875 -4.085938 11.796875 -3.609375 Z M 11.796875 -3.609375 "/></g></g></g><g fill="#000000" fill-opacity="1"><g transform="translate(321.868107, 561.532072)"><g><path d="M 5.140625 -0.078125 C 4.585938 0.078125 4.023438 0.15625 3.453125 0.15625 C 2.117188 0.15625 1.453125 -0.601562 1.453125 -2.125 L 1.453125 -8.828125 L 0.28125 -8.828125 L 0.28125 -10.03125 L 1.515625 -10.03125 L 2 -12.28125 L 3.125 -12.28125 L 3.125 -10.03125 L 4.96875 -10.03125 L 4.96875 -8.828125 L 3.125 -8.828125 L 3.125 -2.484375 C 3.125 -2.003906 3.203125 -1.664062 3.359375 -1.46875 C 3.515625 -1.269531 3.785156 -1.171875 4.171875 -1.171875 C 4.398438 -1.171875 4.722656 -1.21875 5.140625 -1.3125 Z M 5.140625 -0.078125 "/></g></g></g><g fill="#000000" fill-opacity="1"><g transform="translate(327.145836, 561.532072)"><g><path d="M 3.84375 0.1875 C 2.832031 0.1875 2.070312 -0.078125 1.5625 -0.609375 C 1.0625 -1.140625 0.8125 -1.867188 0.8125 -2.796875 C 0.8125 -3.835938 1.148438 -4.632812 1.828125 -5.1875 C 2.515625 -5.75 3.617188 -6.050781 5.140625 -6.09375 L 7.390625 -6.125 L 7.390625 -6.671875 C 7.390625 -7.484375 7.21875 -8.066406 6.875 -8.421875 C 6.53125 -8.773438 5.984375 -8.953125 5.234375 -8.953125 C 4.492188 -8.953125 3.953125 -8.820312 3.609375 -8.5625 C 3.265625 -8.3125 3.0625 -7.910156 3 -7.359375 L 1.25 -7.515625 C 1.53125 -9.316406 2.875 -10.21875 5.28125 -10.21875 C 6.539062 -10.21875 7.488281 -9.925781 8.125 -9.34375 C 8.757812 -8.769531 9.078125 -7.9375 9.078125 -6.84375 L 9.078125 -2.53125 C 9.078125 -2.03125 9.140625 -1.65625 9.265625 -1.40625 C 9.398438 -1.15625 9.648438 -1.03125 10.015625 -1.03125 C 10.179688 -1.03125 10.363281 -1.050781 10.5625 -1.09375 L 10.5625 -0.0625 C 10.144531 0.0390625 9.71875 0.09375 9.28125 0.09375 C 8.65625 0.09375 8.203125 -0.0664062 7.921875 -0.390625 C 7.640625 -0.710938 7.484375 -1.222656 7.453125 -1.921875 L 7.390625 -1.921875 C 6.960938 -1.148438 6.46875 -0.601562 5.90625 -0.28125 C 5.34375 0.03125 4.65625 0.1875 3.84375 0.1875 Z M 4.21875 -1.0625 C 4.832031 -1.0625 5.375 -1.203125 5.84375 -1.484375 C 6.320312 -1.765625 6.695312 -2.144531 6.96875 -2.625 C 7.25 -3.113281 7.390625 -3.613281 7.390625 -4.125 L 7.390625 -4.953125 L 5.5625 -4.921875 C 4.78125 -4.910156 4.1875 -4.828125 3.78125 -4.671875 C 3.375 -4.523438 3.0625 -4.296875 2.84375 -3.984375 C 2.632812 -3.679688 2.53125 -3.28125 2.53125 -2.78125 C 2.53125 -2.226562 2.675781 -1.800781 2.96875 -1.5 C 3.257812 -1.207031 3.675781 -1.0625 4.21875 -1.0625 Z M 4.21875 -1.0625 "/></g></g></g><g fill="#000000" fill-opacity="1"><g transform="translate(337.710563, 561.532072)"><g><path d="M 1.265625 -12.171875 L 1.265625 -13.765625 L 2.9375 -13.765625 L 2.9375 -12.171875 Z M 1.265625 0 L 1.265625 -10.03125 L 2.9375 -10.03125 L 2.9375 0 Z M 1.265625 0 "/></g></g></g><g fill="#000000" fill-opacity="1"><g transform="translate(341.930892, 561.532072)"><g><path d="M 1.3125 0 L 1.3125 -7.703125 C 1.3125 -8.410156 1.296875 -9.1875 1.265625 -10.03125 L 2.84375 -10.03125 C 2.882812 -8.894531 2.90625 -8.210938 2.90625 -7.984375 L 2.953125 -7.984375 C 3.210938 -8.847656 3.515625 -9.4375 3.859375 -9.75 C 4.210938 -10.0625 4.703125 -10.21875 5.328125 -10.21875 C 5.554688 -10.21875 5.785156 -10.1875 6.015625 -10.125 L 6.015625 -8.59375 C 5.785156 -8.65625 5.488281 -8.6875 5.125 -8.6875 C 4.425781 -8.6875 3.894531 -8.390625 3.53125 -7.796875 C 3.164062 -7.203125 2.984375 -6.347656 2.984375 -5.234375 L 2.984375 0 Z M 1.3125 0 "/></g></g></g><g fill="#000000" fill-opacity="1"><g transform="translate(348.25674, 561.532072)"><g><path d="M 8.8125 -2.78125 C 8.8125 -1.832031 8.453125 -1.097656 7.734375 -0.578125 C 7.023438 -0.0664062 6.023438 0.1875 4.734375 0.1875 C 3.484375 0.1875 2.519531 -0.015625 1.84375 -0.421875 C 1.164062 -0.835938 0.726562 -1.484375 0.53125 -2.359375 L 2 -2.640625 C 2.144531 -2.109375 2.4375 -1.710938 2.875 -1.453125 C 3.320312 -1.203125 3.941406 -1.078125 4.734375 -1.078125 C 5.585938 -1.078125 6.207031 -1.207031 6.59375 -1.46875 C 6.988281 -1.726562 7.1875 -2.117188 7.1875 -2.640625 C 7.1875 -3.035156 7.050781 -3.359375 6.78125 -3.609375 C 6.507812 -3.859375 6.070312 -4.0625 5.46875 -4.21875 L 4.265625 -4.53125 C 3.304688 -4.78125 2.625 -5.023438 2.21875 -5.265625 C 1.8125 -5.503906 1.492188 -5.789062 1.265625 -6.125 C 1.035156 -6.46875 0.921875 -6.890625 0.921875 -7.390625 C 0.921875 -8.304688 1.25 -9.003906 1.90625 -9.484375 C 2.5625 -9.960938 3.515625 -10.203125 4.765625 -10.203125 C 5.867188 -10.203125 6.742188 -10.003906 7.390625 -9.609375 C 8.046875 -9.222656 8.460938 -8.597656 8.640625 -7.734375 L 7.140625 -7.546875 C 7.046875 -7.992188 6.796875 -8.335938 6.390625 -8.578125 C 5.984375 -8.816406 5.441406 -8.9375 4.765625 -8.9375 C 4.003906 -8.9375 3.441406 -8.820312 3.078125 -8.59375 C 2.722656 -8.363281 2.546875 -8.015625 2.546875 -7.546875 C 2.546875 -7.265625 2.617188 -7.03125 2.765625 -6.84375 C 2.921875 -6.65625 3.144531 -6.492188 3.4375 -6.359375 C 3.726562 -6.234375 4.335938 -6.054688 5.265625 -5.828125 C 6.148438 -5.609375 6.785156 -5.40625 7.171875 -5.21875 C 7.566406 -5.03125 7.875 -4.820312 8.09375 -4.59375 C 8.320312 -4.363281 8.5 -4.097656 8.625 -3.796875 C 8.75 -3.492188 8.8125 -3.15625 8.8125 -2.78125 Z M 8.8125 -2.78125 "/></g></g></g></svg>